<?xml version="1.0" encoding="UTF-8" standalone="no"?>
<svg xmlns="http://www.w3.org/2000/svg" viewBox="0 0 500 500" width="500" height="500">
  <!-- Leão dourado -->
  <path d="M250 50c-25 0-45 10-60 25-15 15-25 35-25 60 0 15 5 30 15 40 10 10 20 15 35 15 10 0 20-5 30-10 10-5 15-15 15-25 0-5-5-10-10-15-5-5-10-5-15-5-5 0-10 0-15 5-5 5-5 10-5 15 0 5 0 10 5 15 5 5 10 5 15 5 5 0 10 0 15-5 5-5 5-10 5-15 0-10-5-20-15-25-10-5-20-10-30-10-15 0-25 5-35 15-10 10-15 25-15 40 0 25 10 45 25 60 15 15 35 25 60 25 25 0 45-10 60-25 15-15 25-35 25-60 0-25-10-45-25-60-15-15-35-25-60-25z" fill="#D4AF37"/>
  <path d="M250 75c-20 0-35 5-50 20-15 15-20 30-20 50 0 10 5 20 10 30 5 10 15 15 25 15 5 0 15-5 20-10 5-5 10-10 10-20 0-5 0-10-5-15-5-5-10-5-15-5-5 0-10 0-15 5-5 5-5 10-5 15 0 5 0 10 5 15 5 5 10 5 15 5 5 0 10 0 15-5 5-5 5-10 5-15 0-10-5-15-10-20-5-5-15-10-20-10-10 0-20 5-25 15-5 10-10 20-10 30 0 20 5 35 20 50 15 15 30 20 50 20 20 0 35-5 50-20 15-15 20-30 20-50 0-20-5-35-20-50-15-15-30-20-50-20z" fill="#D4AF37"/>
  
  <!-- Juba do leão -->
  <path d="M180 120c-10 10-15 25-15 40 0 15 5 30 15 40 10 10 25 15 40 15 15 0 30-5 40-15 10-10 15-25 15-40 0-15-5-30-15-40-10-10-25-15-40-15-15 0-30 5-40 15z" fill="#D4AF37"/>
  <path d="M160 140c-5 10-10 20-10 30 0 10 5 20 10 30 5 10 15 15 25 15 10 0 20-5 25-15 5-10 10-20 10-30 0-10-5-20-10-30-5-10-15-15-25-15-10 0-20 5-25 15z" fill="#D4AF37"/>
  <path d="M140 160c-5 5-5 15-5 20 0 5 0 15 5 20 5 5 15 5 20 5 5 0 15 0 20-5 5-5 5-15 5-20 0-5 0-15-5-20-5-5-15-5-20-5-5 0-15 0-20 5z" fill="#D4AF37"/>
  
  <!-- Texto RINCON -->
  <text x="100" y="350" font-family="serif" font-size="60" font-weight="bold">RINCON</text>
  
  <!-- Texto SECURITY -->
  <text x="150" y="400" font-family="serif" font-size="30">SECURITY</text>
</svg>
